<svg width="32" height="32" viewBox="0 0 32 32" fill="none" xmlns="http://www.w3.org/2000/svg">
  <path d="M16.1 3.2C11.7 3.2 11.95 5.1 11.95 5.1L12 7.05H16.2V7.65H10.35C10.35 7.65 7.55 7.33 7.55 11.75C7.55 16.18 10 16.02 10 16.02H11.45V13.95C11.45 13.95 11.37 11.48 13.85 11.48H18.02C18.02 11.48 20.35 11.52 20.35 9.22V5.47C20.35 5.47 20.7 3.2 16.1 3.2Z" fill="#3776AB"/>
  <path d="M13.75 5.6C13.75 6.22 13.25 6.72 12.63 6.72C12.02 6.72 11.52 6.22 11.52 5.6C11.52 4.99 12.02 4.49 12.63 4.49C13.25 4.49 13.75 4.99 13.75 5.6Z" fill="#FFFFFF"/>
  <path d="M15.9 28.8C20.3 28.8 20.05 26.9 20.05 26.9L20 24.95H15.8V24.35H21.65C21.65 24.35 24.45 24.67 24.45 20.25C24.45 15.82 22 15.98 22 15.98H20.55V18.05C20.55 18.05 20.63 20.52 18.15 20.52H13.98C13.98 20.52 11.65 20.48 11.65 22.78V26.53C11.65 26.53 11.3 28.8 15.9 28.8Z" fill="#FFD43B"/>
  <path d="M18.25 26.4C18.25 25.78 18.75 25.28 19.37 25.28C19.98 25.28 20.48 25.78 20.48 26.4C20.48 27.01 19.98 27.51 19.37 27.51C18.75 27.51 18.25 27.01 18.25 26.4Z" fill="#FFFFFF"/>
</svg>
