<svg width="386" height="100" viewBox="0 0 386 100" fill="none" xmlns="http://www.w3.org/2000/svg">
<path d="M79.125 47C79.125 38.7158 72.4092 32 64.125 32C55.8408 32 49.125 38.7158 49.125 47H37.125C37.125 32.0883 49.2133 20 64.125 20C79.0367 20 91.125 32.0883 91.125 47C91.125 61.9117 79.0367 74 64.125 74V62C72.4092 62 79.125 55.2842 79.125 47Z" fill="#11A757"/>
<path opacity="0.5" d="M46.125 80C46.125 71.7157 39.4093 65 31.125 65V53C46.0367 53 58.125 65.0883 58.125 80H46.125Z" fill="#9AD6B6"/>
<path d="M131.64 68H123.24V30.48H143.96C147.059 30.48 149.691 30.928 151.856 31.824C154.021 32.6827 155.664 33.952 156.784 35.632C157.904 37.312 158.464 39.3467 158.464 41.736C158.464 43.7893 158.072 45.544 157.288 47C156.504 48.456 155.328 49.632 153.76 50.528C152.192 51.3867 150.232 51.928 147.88 52.152V52.6C149.56 53.048 150.811 53.72 151.632 54.616C152.453 55.512 153.219 56.6133 153.928 57.92L159.36 68H149.616L144.464 58.256C143.941 57.2853 143.4 56.52 142.84 55.96C142.28 55.4 141.552 55.008 140.656 54.784C139.797 54.5227 138.64 54.392 137.184 54.392H131.64V68ZM131.64 38.04V48.064H143.904C145.883 48.064 147.339 47.728 148.272 47.056C149.205 46.3467 149.672 45.0027 149.672 43.024C149.672 41.1573 149.205 39.8693 148.272 39.16C147.339 38.4133 145.883 38.04 143.904 38.04H131.64ZM184.693 68.56C180.587 68.56 177.003 67.776 173.941 66.208C170.917 64.6027 168.584 62.3627 166.941 59.488C165.336 56.576 164.533 53.16 164.533 49.24C164.533 45.32 165.336 41.9227 166.941 39.048C168.584 36.136 170.917 33.896 173.941 32.328C177.003 30.7227 180.587 29.92 184.693 29.92C188.949 29.92 192.589 30.7227 195.613 32.328C198.637 33.896 200.971 36.136 202.613 39.048C204.256 41.9227 205.077 45.32 205.077 49.24C205.077 53.16 204.256 56.576 202.613 59.488C200.971 62.3627 198.637 64.6027 195.613 66.208C192.589 67.776 188.949 68.56 184.693 68.56ZM184.693 60.496C187.456 60.496 189.659 60.1413 191.301 59.432C192.981 58.6853 194.195 57.4907 194.941 55.848C195.725 54.2053 196.117 52.0027 196.117 49.24C196.117 46.44 195.725 44.2373 194.941 42.632C194.195 40.9893 192.981 39.8133 191.301 39.104C189.659 38.3573 187.456 37.984 184.693 37.984C181.968 37.984 179.784 38.3573 178.141 39.104C176.499 39.8133 175.304 40.9893 174.557 42.632C173.811 44.2373 173.437 46.44 173.437 49.24C173.437 52.0027 173.811 54.2053 174.557 55.848C175.304 57.4907 176.499 58.6853 178.141 59.432C179.784 60.1413 181.968 60.496 184.693 60.496ZM220.501 68H212.101V30.48H220.501V68ZM242.845 68H214.453V60.44H242.845V68ZM256.474 68H247.066L263.474 30.48H275.458L291.978 68H282.346L272.042 43.976L269.746 38.152H269.13L266.834 43.976L256.474 68ZM282.458 59.712H256.026V52.152H282.458V59.712ZM317.698 68H309.298V30.48H317.698V68ZM345.055 57.64H328.367V50.08H344.159C346.511 50.08 348.228 49.6693 349.311 48.848C350.431 47.9893 350.991 46.384 350.991 44.032C350.991 41.7547 350.431 40.1867 349.311 39.328C348.228 38.4693 346.511 38.04 344.159 38.04H328.367V30.48H345.055C347.967 30.48 350.487 31.0213 352.615 32.104C354.743 33.1493 356.385 34.68 357.543 36.696C358.737 38.712 359.335 41.1573 359.335 44.032C359.335 46.9067 358.737 49.3707 357.543 51.424C356.385 53.44 354.743 54.9893 352.615 56.072C350.487 57.1173 347.967 57.64 345.055 57.64ZM333.855 68H325.455V30.48H333.855V68Z" fill="#1D1E20"/>
</svg>
